<?xml version="1.0" encoding="UTF-8"?> <svg xmlns="http://www.w3.org/2000/svg" id="Desktop_Logo" data-name="Desktop Logo" width="182.913" height="32.004" viewBox="0 0 182.913 32.004"><g id="Group_187" data-name="Group 187" transform="translate(0)"><g id="Group_138" data-name="Group 138" transform="translate(0 0.718)"><path id="Path_463" data-name="Path 463" d="M51.062,239.737a4.95,4.95,0,0,1,1.693.258,6.9,6.9,0,0,1,1.155.527,51.558,51.558,0,0,1,.516-5.215,33.914,33.914,0,0,1,.841-3.971,17.757,17.757,0,0,1,1.043-2.848,9.338,9.338,0,0,1,1.144-1.862,4.119,4.119,0,0,1,1.132-1.009,2.132,2.132,0,0,1,1.021-.3,1.7,1.7,0,0,1,1.536.852,4.835,4.835,0,0,1,.527,2.512,16.676,16.676,0,0,1-.191,2.232q-.191,1.357-.561,3.027t-.9,3.578q-.527,1.907-1.211,3.835t-1.491,3.813a35.556,35.556,0,0,1-1.749,3.544,12.984,12.984,0,0,0,.28,2.064,3.881,3.881,0,0,0,.483,1.223,1.524,1.524,0,0,0,.673.594,2.226,2.226,0,0,0,.852.157,2.118,2.118,0,0,0,1.256-.438,5.249,5.249,0,0,0,1.234-1.4,17.64,17.64,0,0,0,1.3-2.5q.673-1.537,1.458-3.735l.875.224q-.651,1.728-1.3,3.353a20.863,20.863,0,0,1-1.4,2.894,7.978,7.978,0,0,1-1.648,2.03,3.065,3.065,0,0,1-2.041.763,2.856,2.856,0,0,1-2.2-.842,5.255,5.255,0,0,1-1.166-2.321,12.88,12.88,0,0,1-2.792,3.039,5.1,5.1,0,0,1-3.129,1.133,4.644,4.644,0,0,1-1.772-.348,4.059,4.059,0,0,1-1.5-1.077,5.566,5.566,0,0,1-1.054-1.862,8.143,8.143,0,0,1-.4-2.725,10.726,10.726,0,0,1,.527-3.3,10.081,10.081,0,0,1,1.5-2.95,8.006,8.006,0,0,1,2.355-2.13A5.967,5.967,0,0,1,51.062,239.737Zm-1.974,13.929a3.856,3.856,0,0,0,2.523-1.111,13.7,13.7,0,0,0,2.434-2.927q-.135-1.054-.18-2.243t-.045-2.535v-1.693q0-.841.045-1.626c-.075-.059-.183-.142-.325-.247a3.456,3.456,0,0,0-.538-.314,3.765,3.765,0,0,0-.74-.258,3.952,3.952,0,0,0-.93-.1,4.357,4.357,0,0,0-1.727.426,5.5,5.5,0,0,0-1.828,1.38,7.812,7.812,0,0,0-1.447,2.478,10.468,10.468,0,0,0-.583,3.723,7.973,7.973,0,0,0,.235,1.974,5.5,5.5,0,0,0,.673,1.6,3.448,3.448,0,0,0,1.055,1.077A2.509,2.509,0,0,0,49.088,253.666ZM60.8,228.679q0-.336-.033-.763a3.785,3.785,0,0,0-.146-.8,1.8,1.8,0,0,0-.325-.628.73.73,0,0,0-.594-.257q-.92,0-1.694,1.525a17.445,17.445,0,0,0-1.334,4.2,53.889,53.889,0,0,0-.875,6.292q-.314,3.612-.314,7.783v1.009q.762-1.5,1.458-3.208t1.289-3.431q.595-1.727,1.066-3.432t.807-3.241q.337-1.537.516-2.838A16.623,16.623,0,0,0,60.8,228.679Z" transform="translate(-42.932 -224.677)"></path><path id="Path_464" data-name="Path 464" d="M46.27,253.548a5.307,5.307,0,0,1-2.013-.395,4.711,4.711,0,0,1-1.738-1.243,6.227,6.227,0,0,1-1.18-2.073,8.814,8.814,0,0,1-.44-2.939,11.407,11.407,0,0,1,.557-3.492,10.761,10.761,0,0,1,1.6-3.135,8.675,8.675,0,0,1,2.54-2.3,6.627,6.627,0,0,1,3.433-.909,5.6,5.6,0,0,1,1.912.3q.187.068.357.138c.107-1.594.263-3.045.465-4.325a34.712,34.712,0,0,1,.858-4.046,18.45,18.45,0,0,1,1.083-2.952,10,10,0,0,1,1.226-1.989,4.685,4.685,0,0,1,1.316-1.162,2.765,2.765,0,0,1,1.329-.382,2.335,2.335,0,0,1,2.079,1.155,5.382,5.382,0,0,1,.622,2.847,17.131,17.131,0,0,1-.2,2.321c-.13.924-.322,1.959-.57,3.077s-.549,2.324-.9,3.609-.766,2.587-1.225,3.879-.965,2.588-1.506,3.851a36.43,36.43,0,0,1-1.685,3.437,11.766,11.766,0,0,0,.25,1.769,3.3,3.3,0,0,0,.393,1.019.916.916,0,0,0,.385.358,1.6,1.6,0,0,0,.61.109,1.488,1.488,0,0,0,.883-.317,4.67,4.67,0,0,0,1.072-1.233,17.052,17.052,0,0,0,1.251-2.408c.442-1.008.927-2.251,1.442-3.694a.638.638,0,0,1,.759-.4l.875.225a.638.638,0,0,1,.438.843c-.443,1.176-.882,2.308-1.306,3.365a21.66,21.66,0,0,1-1.445,2.982,8.64,8.64,0,0,1-1.784,2.19,3.7,3.7,0,0,1-2.455.915,3.479,3.479,0,0,1-2.665-1.044,5.055,5.055,0,0,1-.906-1.4,12.521,12.521,0,0,1-2.2,2.191A5.744,5.744,0,0,1,46.27,253.548Zm-.128-14.414a7.411,7.411,0,0,0-2.063,1.9,9.492,9.492,0,0,0-1.408,2.765,10.13,10.13,0,0,0-.5,3.1,7.558,7.558,0,0,0,.367,2.511,4.966,4.966,0,0,0,.929,1.652,3.4,3.4,0,0,0,1.268.911,4.067,4.067,0,0,0,1.951.278,3.1,3.1,0,0,1-1.358-.474,4.094,4.094,0,0,1-1.249-1.27,6.173,6.173,0,0,1-.753-1.788,8.646,8.646,0,0,1-.255-2.133,11.143,11.143,0,0,1,.625-3.951,8.479,8.479,0,0,1,1.569-2.678A7.243,7.243,0,0,1,46.142,239.134Zm6.275,9.007a.638.638,0,0,1,.392.438,4.665,4.665,0,0,0,1.015,2.045,1.938,1.938,0,0,0,1.03.568c-.042-.015-.083-.03-.123-.047a2.151,2.151,0,0,1-.961-.83,4.455,4.455,0,0,1-.572-1.427,13.617,13.617,0,0,1-.3-2.169.639.639,0,0,1,.082-.36q.2-.349.392-.711a.6.6,0,0,1-.075-.013.637.637,0,0,1-.489-.62v-1.009c0-2.783.106-5.421.316-7.838a54.743,54.743,0,0,1,.886-6.368,23,23,0,0,1,.835-3.059,17.23,17.23,0,0,0-1,2.736,33.5,33.5,0,0,0-.824,3.895,51.232,51.232,0,0,0-.509,5.15.64.64,0,0,0-.045,1.012c-.029.509-.044,1.044-.044,1.59v1.693c0,.885.015,1.73.045,2.511s.088,1.5.175,2.186a.638.638,0,0,1-.1.426ZM49.3,239.216a3.757,3.757,0,0,0-1.47.372,4.9,4.9,0,0,0-1.613,1.224,7.22,7.22,0,0,0-1.323,2.278,9.9,9.9,0,0,0-.541,3.5,7.367,7.367,0,0,0,.215,1.817,4.9,4.9,0,0,0,.592,1.418,2.8,2.8,0,0,0,.859.881,1.87,1.87,0,0,0,1.037.294,3.268,3.268,0,0,0,2.1-.953,12.852,12.852,0,0,0,2.192-2.6c-.076-.652-.128-1.346-.156-2.066-.03-.8-.045-1.658-.045-2.559v-1.693c0-.45.01-.893.029-1.323l-.051-.037a2.87,2.87,0,0,0-.436-.252,3.15,3.15,0,0,0-.614-.213A3.338,3.338,0,0,0,49.3,239.216Zm8.366-14.378c-.34,0-.74.418-1.125,1.176a16.919,16.919,0,0,0-1.278,4.047,53.425,53.425,0,0,0-.864,6.217c-.158,1.816-.256,3.76-.294,5.8q.107-.253.212-.511c.462-1.134.892-2.278,1.277-3.4s.744-2.274,1.054-3.394.579-2.2.8-3.208.389-1.935.507-2.789a16.093,16.093,0,0,0,.173-2.133c0-.2-.011-.443-.031-.713a3.17,3.17,0,0,0-.121-.661,1.179,1.179,0,0,0-.207-.407C57.759,224.856,57.745,224.838,57.664,224.838Z" transform="translate(-40.899 -222.643)"></path></g><g id="Group_139" data-name="Group 139" transform="translate(18.754 15.656)"><path id="Path_465" data-name="Path 465" d="M127.879,302.932a6.094,6.094,0,0,1-2.2-.4,5.1,5.1,0,0,1-1.851-1.222,5.934,5.934,0,0,1-1.267-2.053,8.09,8.09,0,0,1-.471-2.893,10.355,10.355,0,0,1,.583-3.6,8.961,8.961,0,0,1,1.492-2.669,6.484,6.484,0,0,1,2.03-1.66,4.814,4.814,0,0,1,2.2-.572,2.811,2.811,0,0,1,2.209.92,3.441,3.441,0,0,1,.819,2.377,5.359,5.359,0,0,1-.472,2.276,5.581,5.581,0,0,1-1.244,1.75,5.646,5.646,0,0,1-1.772,1.133,5.472,5.472,0,0,1-2.075.4,7.982,7.982,0,0,1-.976-.056q-.46-.055-.818-.123a8.744,8.744,0,0,0,.538,2.4,5.3,5.3,0,0,0,1.009,1.66,3.911,3.911,0,0,0,1.358.964,3.991,3.991,0,0,0,1.558.314,3.65,3.65,0,0,0,1.862-.494,6.511,6.511,0,0,0,1.57-1.289,10.676,10.676,0,0,0,1.312-1.828,22.046,22.046,0,0,0,1.066-2.1q.471-1.064.841-2.085t.661-1.806l.875.224q-.292.74-.684,1.795t-.909,2.21a21.357,21.357,0,0,1-1.211,2.309,11.49,11.49,0,0,1-1.57,2.064,7.516,7.516,0,0,1-1.985,1.481A5.327,5.327,0,0,1,127.879,302.932Zm.56-14.2a2.919,2.919,0,0,0-1.626.527,5.26,5.26,0,0,0-1.424,1.447,8.147,8.147,0,0,0-1.021,2.176,8.971,8.971,0,0,0-.392,2.691,4.018,4.018,0,0,0,.819.19,8.875,8.875,0,0,0,1.29.079,3.965,3.965,0,0,0,1.6-.348,4.829,4.829,0,0,0,2.468-2.434,4.4,4.4,0,0,0,.392-1.862,3.263,3.263,0,0,0-.135-.942,2.3,2.3,0,0,0-.4-.785,2.032,2.032,0,0,0-.661-.538A1.966,1.966,0,0,0,128.439,288.734Z" transform="translate(-121.454 -287.221)"></path><path id="Path_466" data-name="Path 466" d="M125.846,301.537a6.754,6.754,0,0,1-2.426-.446,5.744,5.744,0,0,1-2.08-1.373,6.6,6.6,0,0,1-1.406-2.27,8.769,8.769,0,0,1-.512-3.121,11.043,11.043,0,0,1,.622-3.821,9.633,9.633,0,0,1,1.6-2.857,7.141,7.141,0,0,1,2.23-1.819,5.468,5.468,0,0,1,2.488-.642,3.434,3.434,0,0,1,2.686,1.134,4.075,4.075,0,0,1,.98,2.8,6.017,6.017,0,0,1-.53,2.544,6.239,6.239,0,0,1-1.386,1.947,6.307,6.307,0,0,1-1.97,1.259,6.136,6.136,0,0,1-2.314.45,8.639,8.639,0,0,1-1.049-.061,7.1,7.1,0,0,0,.385,1.406,4.688,4.688,0,0,0,.883,1.463,3.3,3.3,0,0,0,1.136.81,3.375,3.375,0,0,0,1.312.265,3,3,0,0,0,1.542-.408,5.906,5.906,0,0,0,1.417-1.165,10.1,10.1,0,0,0,1.233-1.719,21.612,21.612,0,0,0,1.035-2.037c.306-.692.583-1.38.824-2.045q.371-1.024.663-1.811a.639.639,0,0,1,.757-.4l.875.225a.638.638,0,0,1,.435.852c-.193.49-.422,1.09-.68,1.783s-.572,1.459-.924,2.247a22.135,22.135,0,0,1-1.248,2.379,12.206,12.206,0,0,1-1.657,2.177,8.181,8.181,0,0,1-2.152,1.6A5.982,5.982,0,0,1,125.846,301.537Zm-2.768-13.565q-.235.231-.455.5a8.375,8.375,0,0,0-1.383,2.481,9.776,9.776,0,0,0-.544,3.379,7.5,7.5,0,0,0,.429,2.665,5.33,5.33,0,0,0,1.129,1.836,4.482,4.482,0,0,0,1.621,1.071,5.412,5.412,0,0,0,.92.262l-.106-.043A4.563,4.563,0,0,1,123.113,299a5.944,5.944,0,0,1-1.134-1.858,9.417,9.417,0,0,1-.581-2.575.708.708,0,0,0-.092-1.026,9.65,9.65,0,0,1,.421-2.882,8.816,8.816,0,0,1,1.1-2.345Q122.95,288.137,123.078,287.972Zm-.485,5.085c.076.015.163.03.262.044a8.281,8.281,0,0,0,1.2.072,3.351,3.351,0,0,0,1.348-.294,4.187,4.187,0,0,0,2.144-2.116,3.784,3.784,0,0,0,.334-1.595,2.64,2.64,0,0,0-.108-.759,1.65,1.65,0,0,0-.291-.57,1.378,1.378,0,0,0-.455-.369,1.342,1.342,0,0,0-.616-.131,2.274,2.274,0,0,0-1.274.421,4.649,4.649,0,0,0-1.249,1.275,7.544,7.544,0,0,0-.938,2.006A8.159,8.159,0,0,0,122.593,293.057Z" transform="translate(-119.421 -285.188)"></path></g><g id="Group_140" data-name="Group 140" transform="translate(31.65 14.265)"><path id="Path_467" data-name="Path 467" d="M187.418,289.238c-.075.314-.169.792-.236,1.165s-.123.759-.168,1.155a10.33,10.33,0,0,0-.068,1.155,5.737,5.737,0,0,0,.348,2.411,1.242,1.242,0,0,0,1.2.661,1.624,1.624,0,0,0,.975-.359,4.638,4.638,0,0,0,1.043-1.256,19.471,19.471,0,0,0,1.233-2.434q.673-1.535,1.57-3.891l.875.224q-.92,2.49-1.671,4.172a17.571,17.571,0,0,1-1.458,2.714,5.288,5.288,0,0,1-1.4,1.481,2.757,2.757,0,0,1-1.525.448,2.372,2.372,0,0,1-1.727-.707,3.586,3.586,0,0,1-.9-2.187,7.28,7.28,0,0,1-1.861,2.523,4.27,4.27,0,0,1-2.871.975,4.7,4.7,0,0,1-1.761-.336,4.065,4.065,0,0,1-1.492-1.043,5.25,5.25,0,0,1-1.043-1.783,7.4,7.4,0,0,1-.393-2.535,10.112,10.112,0,0,1,.37-2.781,11.214,11.214,0,0,1,.975-2.389,9.85,9.85,0,0,1,1.4-1.94,9.968,9.968,0,0,1,1.648-1.435,7.8,7.8,0,0,1,1.7-.9,4.579,4.579,0,0,1,1.57-.314,4.653,4.653,0,0,1,1.211.157,3,3,0,0,1,1.043.5,2.5,2.5,0,0,1,.74.93,3.361,3.361,0,0,1,.28,1.458,3.87,3.87,0,0,1-.392,1.794,4.659,4.659,0,0,1-.942,1.279,5.554,5.554,0,0,1-1.122.83,8.955,8.955,0,0,1-.909.448l-.269-.875a3.851,3.851,0,0,0,.5-.18,3.452,3.452,0,0,0,.92-.594,4.546,4.546,0,0,0,.886-1.065,2.961,2.961,0,0,0,.4-1.592,2.033,2.033,0,0,0-2.153-2.221,3.69,3.69,0,0,0-1.683.516,6.184,6.184,0,0,0-1.85,1.615,9.737,9.737,0,0,0-1.5,2.781,11.682,11.682,0,0,0-.616,4.015,6.283,6.283,0,0,0,.818,3.521,2.54,2.54,0,0,0,2.209,1.212,2.509,2.509,0,0,0,1.335-.393,4.777,4.777,0,0,0,1.177-1.042,7.706,7.706,0,0,0,.965-1.515,16.971,16.971,0,0,0,.74-1.783c.251-.7.4-.928.57-1.548Z" transform="translate(-175.452 -281.399)"></path><path id="Path_468" data-name="Path 468" d="M178.745,296.1a5.354,5.354,0,0,1-2-.382,4.718,4.718,0,0,1-1.724-1.2,5.9,5.9,0,0,1-1.173-2,8.058,8.058,0,0,1-.431-2.753,10.81,10.81,0,0,1,.395-2.956,11.905,11.905,0,0,1,1.032-2.525,10.538,10.538,0,0,1,1.494-2.065,10.67,10.67,0,0,1,1.754-1.526,8.489,8.489,0,0,1,1.844-.969,5.23,5.23,0,0,1,1.791-.353,5.3,5.3,0,0,1,1.377.179,3.641,3.641,0,0,1,1.263.612,3.147,3.147,0,0,1,.93,1.162,4.008,4.008,0,0,1,.343,1.736,4.517,4.517,0,0,1-.463,2.086,5.31,5.31,0,0,1-1.072,1.451,6.215,6.215,0,0,1-1.251.924,9.421,9.421,0,0,1-.979.482.638.638,0,0,1-.846-.4l-.269-.875a.638.638,0,0,1,.414-.795l.175-.055a2.368,2.368,0,0,0,.283-.107,2.859,2.859,0,0,0,.747-.488,3.934,3.934,0,0,0,.76-.918,2.351,2.351,0,0,0,.308-1.256,1.4,1.4,0,0,0-1.515-1.583,3.106,3.106,0,0,0-1.382.44,5.585,5.585,0,0,0-1.655,1.453,9.163,9.163,0,0,0-1.4,2.6,11.115,11.115,0,0,0-.577,3.8,5.723,5.723,0,0,0,.709,3.164,1.9,1.9,0,0,0,1.681.931,1.869,1.869,0,0,0,1-.3,4.165,4.165,0,0,0,1.02-.906,7.1,7.1,0,0,0,.884-1.39,16.217,16.217,0,0,0,.711-1.716c.1-.289.19-.5.267-.691a6.782,6.782,0,0,0,.289-.815.639.639,0,0,1,.211-.321l1.292-1.052a.638.638,0,0,1,1.023.643c-.074.313-.167.789-.229,1.13s-.118.729-.162,1.114a9.737,9.737,0,0,0-.064,1.083,5.006,5.006,0,0,0,.275,2.114c.087.167.225.321.636.321a1,1,0,0,0,.594-.233,3.952,3.952,0,0,0,.883-1.082,18.913,18.913,0,0,0,1.19-2.352c.441-1.005.965-2.3,1.559-3.863a.639.639,0,0,1,.755-.391l.875.225a.638.638,0,0,1,.44.839c-.617,1.669-1.185,3.086-1.687,4.211a18.267,18.267,0,0,1-1.514,2.814,5.845,5.845,0,0,1-1.582,1.656,3.4,3.4,0,0,1-1.871.55,3,3,0,0,1-2.175-.89,3.216,3.216,0,0,1-.669-.984,7.368,7.368,0,0,1-1.227,1.352A4.91,4.91,0,0,1,178.745,296.1Zm-.366-14.034a9.887,9.887,0,0,0-1.108,1.025,9.253,9.253,0,0,0-1.311,1.815,10.644,10.644,0,0,0-.919,2.253,9.53,9.53,0,0,0-.346,2.606,6.805,6.805,0,0,0,.354,2.316,4.649,4.649,0,0,0,.913,1.57,3.456,3.456,0,0,0,1.259.882c.084.034.169.064.255.092a3.536,3.536,0,0,1-.908-.937,6.819,6.819,0,0,1-.927-3.878,12.366,12.366,0,0,1,.655-4.234,10.416,10.416,0,0,1,1.605-2.962Q178.136,282.317,178.379,282.061Zm5.226,9.272a.638.638,0,0,1,.506.548,3.005,3.005,0,0,0,.711,1.809,1.95,1.95,0,0,0,.3.241,1.892,1.892,0,0,1-.423-.544,6.11,6.11,0,0,1-.421-2.708,11,11,0,0,1,.072-1.227l0-.019c-.066.163-.139.346-.226.587C183.946,290.515,183.776,290.944,183.605,291.334Z" transform="translate(-173.419 -279.366)"></path></g><g id="Group_141" data-name="Group 141" transform="translate(91.989 14.265)"><path id="Path_469" data-name="Path 469" d="M440.106,289.049c-.075.314-.216.981-.283,1.354s-.123.759-.168,1.155a10.274,10.274,0,0,0-.068,1.155,5.741,5.741,0,0,0,.348,2.411,1.242,1.242,0,0,0,1.2.661,1.625,1.625,0,0,0,.976-.359,4.638,4.638,0,0,0,1.043-1.256,19.494,19.494,0,0,0,1.233-2.434q.673-1.535,1.57-3.891l.876.224q-.921,2.49-1.672,4.172a17.549,17.549,0,0,1-1.458,2.714,5.294,5.294,0,0,1-1.4,1.481,2.758,2.758,0,0,1-1.525.448,2.372,2.372,0,0,1-1.728-.707,3.587,3.587,0,0,1-.9-2.187,7.283,7.283,0,0,1-1.861,2.523,4.269,4.269,0,0,1-2.871.975,4.7,4.7,0,0,1-1.761-.336,4.072,4.072,0,0,1-1.492-1.043,5.252,5.252,0,0,1-1.042-1.783,7.394,7.394,0,0,1-.393-2.535,10.131,10.131,0,0,1,.37-2.781,11.227,11.227,0,0,1,.976-2.389,9.857,9.857,0,0,1,1.4-1.94,9.975,9.975,0,0,1,1.648-1.435,7.812,7.812,0,0,1,1.7-.9,4.58,4.58,0,0,1,1.57-.314,4.653,4.653,0,0,1,1.211.157,3,3,0,0,1,1.043.5,2.5,2.5,0,0,1,.74.93,3.358,3.358,0,0,1,.28,1.458,3.873,3.873,0,0,1-.392,1.794,4.665,4.665,0,0,1-.942,1.279,5.558,5.558,0,0,1-1.122.83,8.906,8.906,0,0,1-.909.448l-.269-.875a3.868,3.868,0,0,0,.5-.18,3.447,3.447,0,0,0,.919-.594,4.541,4.541,0,0,0,.886-1.065,2.962,2.962,0,0,0,.4-1.592,2.033,2.033,0,0,0-2.153-2.221,3.692,3.692,0,0,0-1.683.516,6.2,6.2,0,0,0-1.85,1.615,9.75,9.75,0,0,0-1.5,2.781,11.687,11.687,0,0,0-.617,4.015,6.283,6.283,0,0,0,.819,3.521,2.54,2.54,0,0,0,2.209,1.212,2.51,2.51,0,0,0,1.335-.393,4.787,4.787,0,0,0,1.177-1.042,7.727,7.727,0,0,0,.965-1.515,16.965,16.965,0,0,0,.739-1.783c.251-.7.447-1.077.547-1.382Z" transform="translate(-428.093 -281.399)"></path><path id="Path_470" data-name="Path 470" d="M431.387,296.1a5.353,5.353,0,0,1-2-.382,4.721,4.721,0,0,1-1.724-1.2,5.907,5.907,0,0,1-1.173-2,8.068,8.068,0,0,1-.431-2.753,10.812,10.812,0,0,1,.394-2.956,11.928,11.928,0,0,1,1.031-2.525,10.551,10.551,0,0,1,1.493-2.065,10.68,10.68,0,0,1,1.755-1.526,8.486,8.486,0,0,1,1.844-.969,5.231,5.231,0,0,1,1.791-.353,5.3,5.3,0,0,1,1.377.179,3.639,3.639,0,0,1,1.263.612,3.142,3.142,0,0,1,.93,1.162,4,4,0,0,1,.343,1.735,4.522,4.522,0,0,1-.462,2.086,5.32,5.32,0,0,1-1.072,1.452,6.221,6.221,0,0,1-1.252.924,9.431,9.431,0,0,1-.979.482.637.637,0,0,1-.846-.405l-.269-.875a.638.638,0,0,1,.413-.795l.175-.055a2.383,2.383,0,0,0,.283-.107,2.856,2.856,0,0,0,.747-.488,3.943,3.943,0,0,0,.76-.918,2.354,2.354,0,0,0,.308-1.256,1.4,1.4,0,0,0-1.515-1.583,3.106,3.106,0,0,0-1.382.44,5.6,5.6,0,0,0-1.655,1.453,9.168,9.168,0,0,0-1.4,2.6,11.117,11.117,0,0,0-.578,3.8,5.72,5.72,0,0,0,.709,3.164,1.9,1.9,0,0,0,1.681.931,1.869,1.869,0,0,0,1-.3,4.166,4.166,0,0,0,1.02-.906,7.127,7.127,0,0,0,.884-1.39,16.236,16.236,0,0,0,.712-1.716c.146-.407.272-.706.374-.946.073-.173.131-.31.168-.42a.636.636,0,0,1,.147-.244l1.363-1.407a.638.638,0,0,1,1.079.592c-.072.3-.211.957-.276,1.319s-.118.728-.162,1.114a9.678,9.678,0,0,0-.064,1.083,5.008,5.008,0,0,0,.275,2.114c.087.166.225.32.635.32a1,1,0,0,0,.595-.233,3.946,3.946,0,0,0,.883-1.082,18.949,18.949,0,0,0,1.19-2.352c.441-1.007.965-2.306,1.558-3.863a.639.639,0,0,1,.755-.391l.875.225a.638.638,0,0,1,.44.839c-.618,1.672-1.186,3.088-1.687,4.211a18.272,18.272,0,0,1-1.514,2.814,5.846,5.846,0,0,1-1.582,1.656,3.4,3.4,0,0,1-1.872.55,3,3,0,0,1-2.175-.89,3.212,3.212,0,0,1-.669-.984,7.357,7.357,0,0,1-1.227,1.352A4.908,4.908,0,0,1,431.387,296.1Zm-.365-14.035a9.908,9.908,0,0,0-1.109,1.026A9.263,9.263,0,0,0,428.6,284.9a10.625,10.625,0,0,0-.919,2.253,9.535,9.535,0,0,0-.346,2.606,6.8,6.8,0,0,0,.354,2.316,4.645,4.645,0,0,0,.913,1.57,3.459,3.459,0,0,0,1.259.882q.126.05.255.092a3.532,3.532,0,0,1-.909-.937,6.82,6.82,0,0,1-.928-3.878,12.364,12.364,0,0,1,.656-4.234,10.426,10.426,0,0,1,1.605-2.962Q430.778,282.317,431.022,282.06Zm5.225,9.273a.638.638,0,0,1,.506.548,3.007,3.007,0,0,0,.711,1.809,1.929,1.929,0,0,0,.3.241,1.893,1.893,0,0,1-.423-.543,6.11,6.11,0,0,1-.421-2.708,11,11,0,0,1,.071-1.227c0-.007,0-.014,0-.02-.069.167-.145.36-.226.588C436.587,290.515,436.419,290.944,436.247,291.334Z" transform="translate(-426.061 -279.366)"></path></g><g id="Group_142" data-name="Group 142" transform="translate(47.733 12.987)"><path id="Path_471" data-name="Path 471" d="M245.873,282.807a14.111,14.111,0,0,1-.449,1.346,8.954,8.954,0,0,1-.493,1.043,8.459,8.459,0,0,1-.594.92q-.325.437-.729.953l-.179-.18q.516-1.323.908-2.49t.707-2.333a5.048,5.048,0,0,1-.617-1.289,5.882,5.882,0,0,1-.258-1.85,3.74,3.74,0,0,1,.3-1.6q.3-.639.8-.639a.694.694,0,0,1,.5.247,1.973,1.973,0,0,1,.393.651,4.846,4.846,0,0,1,.246.931,6.6,6.6,0,0,1,.09,1.11,5.435,5.435,0,0,1-.034.584c-.022.209-.048.423-.078.639s-.068.427-.113.628a5.107,5.107,0,0,1-.135.5,1.154,1.154,0,0,0,.438.191,3.291,3.291,0,0,0,.8.078,4.223,4.223,0,0,0,1.5-.247,2.881,2.881,0,0,0,1.032-.628q.336-.538.527-.83t.3-.437a.773.773,0,0,1,.168-.18.276.276,0,0,1,.146-.034.6.6,0,0,1,.4.135.476.476,0,0,1,.156.381.383.383,0,0,1-.067.18q-.067.113-.18.292a11.725,11.725,0,0,0-1.48,3.005,11.577,11.577,0,0,0-.538,3.633,5.778,5.778,0,0,0,.751,3.342,2.491,2.491,0,0,0,2.142,1.032,2.6,2.6,0,0,0,1.458-.46A5.289,5.289,0,0,0,255.07,290a15.735,15.735,0,0,0,1.357-2.512q.684-1.536,1.469-3.712l.875.224a47.144,47.144,0,0,1-1.817,4.677,15.29,15.29,0,0,1-1.682,2.893,4.915,4.915,0,0,1-1.7,1.481,4.389,4.389,0,0,1-1.907.415,3.48,3.48,0,0,1-1.346-.292,3.593,3.593,0,0,1-1.267-.92,4.778,4.778,0,0,1-.931-1.626,7.148,7.148,0,0,1-.359-2.411,8.954,8.954,0,0,1,.123-1.447,12.847,12.847,0,0,1,.325-1.457q.2-.708.449-1.369a12.265,12.265,0,0,1,.516-1.2,4.039,4.039,0,0,1-1.749.381A3.438,3.438,0,0,1,245.873,282.807Z" transform="translate(-242.791 -276.046)"></path><path id="Path_472" data-name="Path 472" d="M249.627,292.066a4.123,4.123,0,0,1-1.592-.341,4.244,4.244,0,0,1-1.492-1.079,5.427,5.427,0,0,1-1.06-1.84,7.8,7.8,0,0,1-.4-2.626,9.591,9.591,0,0,1,.132-1.55,13.545,13.545,0,0,1,.341-1.529c.138-.483.294-.958.463-1.414a5.041,5.041,0,0,1-.634.039,4.739,4.739,0,0,1-1.133-.127c-.091.278-.181.531-.272.758a9.665,9.665,0,0,1-.529,1.117,9.21,9.21,0,0,1-.638.989q-.331.444-.739.966a.638.638,0,0,1-.464.244.626.626,0,0,1-.49-.186l-.18-.18a.639.639,0,0,1-.143-.683c.337-.864.639-1.692.9-2.461.227-.675.435-1.354.621-2.024a6.077,6.077,0,0,1-.532-1.194,6.539,6.539,0,0,1-.291-2.052,4.379,4.379,0,0,1,.365-1.877,1.5,1.5,0,0,1,1.373-1,1.317,1.317,0,0,1,.965.444,2.608,2.608,0,0,1,.526.86,5.518,5.518,0,0,1,.281,1.055,7.288,7.288,0,0,1,.1,1.217,6.143,6.143,0,0,1-.037.652c-.023.215-.05.435-.081.658s-.07.441-.115.65a3.573,3.573,0,0,0,.47.027,3.619,3.619,0,0,0,1.277-.205,2.363,2.363,0,0,0,.759-.437q.311-.5.492-.773c.138-.211.247-.368.334-.48a1.219,1.219,0,0,1,.349-.338.892.892,0,0,1,.469-.122,1.239,1.239,0,0,1,.818.288,1.1,1.1,0,0,1,.38.866.981.981,0,0,1-.157.508c-.046.077-.108.178-.186.3l-.015.023a11.133,11.133,0,0,0-1.4,2.843,10.991,10.991,0,0,0-.507,3.434,5.243,5.243,0,0,0,.629,2.967,1.85,1.85,0,0,0,1.626.77,1.961,1.961,0,0,0,1.106-.354,4.7,4.7,0,0,0,1.195-1.266,15.184,15.184,0,0,0,1.3-2.409c.447-1,.935-2.238,1.452-3.669a.639.639,0,0,1,.759-.4l.875.225a.638.638,0,0,1,.446.823,47.971,47.971,0,0,1-1.843,4.742,15.957,15.957,0,0,1-1.757,3.015,5.552,5.552,0,0,1-1.935,1.665A5.034,5.034,0,0,1,249.627,292.066Zm-2.75-8.924q-.047.153-.091.308a12.251,12.251,0,0,0-.309,1.385,8.322,8.322,0,0,0-.115,1.344,6.556,6.556,0,0,0,.321,2.195,4.168,4.168,0,0,0,.8,1.413,2.981,2.981,0,0,0,1.043.762,2.864,2.864,0,0,0,1.1.242,3.771,3.771,0,0,0,1.633-.354,3.172,3.172,0,0,0,.7-.47,3.224,3.224,0,0,1-1.754.529,3.109,3.109,0,0,1-2.658-1.294,6.293,6.293,0,0,1-.873-3.718A13.4,13.4,0,0,1,246.877,283.142Zm.756-2.838a.635.635,0,0,1,.084.134q.057-.128.116-.253Q247.736,280.246,247.633,280.3Zm-4.419-5.02a.617.617,0,0,0-.2.278,3.138,3.138,0,0,0-.242,1.331,5.277,5.277,0,0,0,.226,1.649,4.448,4.448,0,0,0,.53,1.12c.03-.1.061-.221.091-.361.041-.185.076-.379.1-.579s.054-.416.075-.618a4.86,4.86,0,0,0,.03-.516,5.979,5.979,0,0,0-.081-1,4.221,4.221,0,0,0-.212-.808,1.352,1.352,0,0,0-.26-.441A.232.232,0,0,0,243.214,275.285Z" transform="translate(-240.757 -274.012)"></path></g><g id="Group_143" data-name="Group 143" transform="translate(73.323 0.718)"><path id="Path_473" data-name="Path 473" d="M358.065,239.737a4.959,4.959,0,0,1,1.694.258,6.93,6.93,0,0,1,1.155.527,51.355,51.355,0,0,1,.515-5.215,33.861,33.861,0,0,1,.841-3.971,17.713,17.713,0,0,1,1.043-2.848,9.328,9.328,0,0,1,1.144-1.862,4.109,4.109,0,0,1,1.132-1.009,2.13,2.13,0,0,1,1.021-.3,1.7,1.7,0,0,1,1.536.852,4.838,4.838,0,0,1,.527,2.512,16.639,16.639,0,0,1-.191,2.232q-.191,1.357-.561,3.027t-.9,3.578q-.527,1.907-1.211,3.835t-1.491,3.813a35.554,35.554,0,0,1-1.749,3.544,12.845,12.845,0,0,0,.28,2.064,3.871,3.871,0,0,0,.483,1.223,1.519,1.519,0,0,0,.673.594,2.226,2.226,0,0,0,.852.157,2.118,2.118,0,0,0,1.256-.438,5.249,5.249,0,0,0,1.233-1.4,17.616,17.616,0,0,0,1.3-2.5q.673-1.537,1.458-3.735l.874.224q-.65,1.728-1.3,3.353a20.916,20.916,0,0,1-1.4,2.894,7.98,7.98,0,0,1-1.649,2.03,3.062,3.062,0,0,1-2.041.763,2.857,2.857,0,0,1-2.2-.842,5.255,5.255,0,0,1-1.166-2.321,12.862,12.862,0,0,1-2.793,3.039,5.1,5.1,0,0,1-3.129,1.133,4.645,4.645,0,0,1-1.772-.348,4.06,4.06,0,0,1-1.5-1.077,5.559,5.559,0,0,1-1.055-1.862,8.143,8.143,0,0,1-.4-2.725,10.705,10.705,0,0,1,.527-3.3,10.085,10.085,0,0,1,1.5-2.95,8.011,8.011,0,0,1,2.355-2.13A5.965,5.965,0,0,1,358.065,239.737Zm-1.974,13.929a3.857,3.857,0,0,0,2.524-1.111,13.692,13.692,0,0,0,2.434-2.927q-.134-1.054-.179-2.243t-.045-2.535v-1.693q0-.841.045-1.626c-.075-.059-.184-.142-.326-.247a3.42,3.42,0,0,0-.538-.314,3.767,3.767,0,0,0-.74-.258,3.96,3.96,0,0,0-.931-.1,4.352,4.352,0,0,0-1.727.426,5.5,5.5,0,0,0-1.828,1.38,7.8,7.8,0,0,0-1.447,2.478,10.462,10.462,0,0,0-.583,3.723,7.938,7.938,0,0,0,.236,1.974,5.47,5.47,0,0,0,.673,1.6,3.446,3.446,0,0,0,1.054,1.077A2.511,2.511,0,0,0,356.092,253.666ZM367.8,228.679q0-.336-.033-.763a3.756,3.756,0,0,0-.146-.8,1.8,1.8,0,0,0-.325-.628.731.731,0,0,0-.594-.257q-.92,0-1.694,1.525a17.454,17.454,0,0,0-1.335,4.2,53.95,53.95,0,0,0-.874,6.292q-.315,3.612-.314,7.783v1.009q.762-1.5,1.458-3.208t1.29-3.431q.594-1.727,1.066-3.432t.807-3.241q.336-1.537.515-2.838A16.623,16.623,0,0,0,367.8,228.679Z" transform="translate(-349.936 -224.677)"></path><path id="Path_474" data-name="Path 474" d="M353.274,253.548a5.307,5.307,0,0,1-2.013-.395,4.713,4.713,0,0,1-1.737-1.243,6.214,6.214,0,0,1-1.18-2.073,8.807,8.807,0,0,1-.44-2.939,11.39,11.39,0,0,1,.558-3.492,10.767,10.767,0,0,1,1.6-3.135,8.677,8.677,0,0,1,2.542-2.3,6.621,6.621,0,0,1,3.432-.909,5.606,5.606,0,0,1,1.912.3q.188.068.357.137c.107-1.593.263-3.044.465-4.325a34.634,34.634,0,0,1,.858-4.046,18.423,18.423,0,0,1,1.083-2.952,10.025,10.025,0,0,1,1.226-1.99,4.687,4.687,0,0,1,1.317-1.162,2.761,2.761,0,0,1,1.328-.382,2.337,2.337,0,0,1,2.079,1.155,5.383,5.383,0,0,1,.622,2.847,17.123,17.123,0,0,1-.2,2.321c-.129.917-.321,1.952-.57,3.077-.245,1.105-.549,2.32-.9,3.609s-.767,2.587-1.225,3.879-.968,2.595-1.506,3.851a36.5,36.5,0,0,1-1.685,3.438,11.618,11.618,0,0,0,.249,1.768,3.3,3.3,0,0,0,.394,1.02.91.91,0,0,0,.384.357,1.6,1.6,0,0,0,.61.11,1.489,1.489,0,0,0,.883-.317,4.669,4.669,0,0,0,1.072-1.233,17.049,17.049,0,0,0,1.251-2.409c.441-1.007.926-2.25,1.442-3.694a.639.639,0,0,1,.76-.4l.874.225a.638.638,0,0,1,.439.843c-.43,1.143-.869,2.276-1.305,3.365a21.644,21.644,0,0,1-1.445,2.982,8.644,8.644,0,0,1-1.784,2.19,3.7,3.7,0,0,1-2.454.914,3.478,3.478,0,0,1-2.665-1.044,5.042,5.042,0,0,1-.906-1.4,12.533,12.533,0,0,1-2.2,2.192A5.742,5.742,0,0,1,353.274,253.548Zm-.129-14.413a7.411,7.411,0,0,0-2.062,1.9,9.491,9.491,0,0,0-1.407,2.764,10.122,10.122,0,0,0-.5,3.1,7.558,7.558,0,0,0,.367,2.511,4.959,4.959,0,0,0,.93,1.652,3.4,3.4,0,0,0,1.268.911,4.071,4.071,0,0,0,1.952.278,3.11,3.11,0,0,1-1.358-.474,4.094,4.094,0,0,1-1.249-1.271,6.132,6.132,0,0,1-.753-1.789,8.617,8.617,0,0,1-.255-2.132,11.138,11.138,0,0,1,.625-3.951,8.47,8.47,0,0,1,1.569-2.679A7.162,7.162,0,0,1,353.145,239.136Zm6.276,9.006a.638.638,0,0,1,.392.438,4.663,4.663,0,0,0,1.015,2.045,1.937,1.937,0,0,0,1.03.569c-.042-.015-.083-.03-.124-.047a2.144,2.144,0,0,1-.961-.831,4.447,4.447,0,0,1-.572-1.426,13.521,13.521,0,0,1-.3-2.17.64.64,0,0,1,.082-.359q.2-.349.391-.711a.6.6,0,0,1-.075-.013.638.638,0,0,1-.49-.62v-1.009c0-2.791.107-5.428.316-7.839a54.784,54.784,0,0,1,.886-6.368,23.008,23.008,0,0,1,.837-3.062,17.147,17.147,0,0,0-1,2.739,33.378,33.378,0,0,0-.825,3.9,50.927,50.927,0,0,0-.508,5.149.641.641,0,0,0-.045,1.013c-.029.5-.044,1.034-.044,1.589v1.693c0,.9.015,1.744.045,2.51s.088,1.5.175,2.187a.638.638,0,0,1-.1.426Zm-3.12-8.925a3.753,3.753,0,0,0-1.469.371,4.894,4.894,0,0,0-1.613,1.224,7.221,7.221,0,0,0-1.323,2.278,9.889,9.889,0,0,0-.541,3.5,7.337,7.337,0,0,0,.216,1.816,4.868,4.868,0,0,0,.592,1.418,2.831,2.831,0,0,0,.859.882,1.872,1.872,0,0,0,1.037.294,3.267,3.267,0,0,0,2.1-.953,12.831,12.831,0,0,0,2.193-2.6c-.076-.653-.128-1.347-.155-2.066-.03-.782-.046-1.643-.046-2.559v-1.693c0-.455.01-.9.028-1.322l-.05-.038a2.844,2.844,0,0,0-.436-.252,3.133,3.133,0,0,0-.615-.213A3.34,3.34,0,0,0,356.3,239.216Zm8.367-14.378c-.341,0-.74.418-1.125,1.176a16.941,16.941,0,0,0-1.279,4.047,53.65,53.65,0,0,0-.863,6.217c-.158,1.812-.256,3.755-.294,5.8q.106-.253.211-.509c.46-1.129.89-2.272,1.277-3.4.392-1.141.747-2.283,1.054-3.394s.578-2.2.8-3.208.389-1.937.506-2.788a16.106,16.106,0,0,0,.173-2.133c0-.208-.011-.448-.032-.712a3.159,3.159,0,0,0-.12-.662,1.175,1.175,0,0,0-.207-.408C364.763,224.855,364.749,224.838,364.668,224.838Z" transform="translate(-347.903 -222.643)"></path></g><g id="Group_144" data-name="Group 144" transform="translate(109.223 15.342)"><path id="Path_475" data-name="Path 475" d="M500.891,291.277a10.71,10.71,0,0,1,1.548-3.151,2.441,2.441,0,0,1,1.951-1.043,2.017,2.017,0,0,1,.931.224,2.1,2.1,0,0,1,.773.729,4.051,4.051,0,0,1,.528,1.312,8.78,8.78,0,0,1,.19,1.974,11.821,11.821,0,0,1,2.041-3.679,3.051,3.051,0,0,1,2.243-1.1,2.48,2.48,0,0,1,.908.18,2.016,2.016,0,0,1,.83.639,3.79,3.79,0,0,1,.617,1.245,7.138,7.138,0,0,1,.269,1.974,5.9,5.9,0,0,1,1.514-1.929,3.1,3.1,0,0,1,2.008-.74,3.2,3.2,0,0,1,1.077.191,2.36,2.36,0,0,1,.953.639,3.5,3.5,0,0,1,.684,1.177,5.257,5.257,0,0,1,.269,1.806c0,.21-.015.482-.045.819s-.067.706-.112,1.11-.09.815-.135,1.234-.09.811-.135,1.177-.083.688-.112.965-.045.468-.045.572a4.418,4.418,0,0,0,.314,1.929,1.172,1.172,0,0,0,1.144.606,1.778,1.778,0,0,0,1.278-.752A11.347,11.347,0,0,0,523.7,297.4q.673-1.233,1.368-2.826t1.414-3.3l.874.225q-.65,1.548-1.346,3.275a27.272,27.272,0,0,1-1.514,3.185,11.2,11.2,0,0,1-1.761,2.411,2.878,2.878,0,0,1-2.085.954,2.553,2.553,0,0,1-2.019-.785,3.941,3.941,0,0,1-.7-2.625,13.942,13.942,0,0,1,.113-1.716q.112-.907.258-1.816t.258-1.773a12.4,12.4,0,0,0,.112-1.581,4.911,4.911,0,0,0-.068-.807,2.448,2.448,0,0,0-.235-.728,1.381,1.381,0,0,0-.449-.516,1.275,1.275,0,0,0-.729-.19,1.5,1.5,0,0,0-1.077.538,6.293,6.293,0,0,0-.987,1.435,15.279,15.279,0,0,0-.875,2.053q-.4,1.155-.718,2.378t-.56,2.422q-.248,1.2-.382,2.186l-1.592-.269q.224-1.1.37-1.962t.325-1.952q.179-1.087.326-2.187t.247-2.108q.1-1.01.1-1.705a3,3,0,0,0-.359-1.547,1.153,1.153,0,0,0-1.054-.606,1.641,1.641,0,0,0-1.245.74,8.43,8.43,0,0,0-1.111,1.94,24.634,24.634,0,0,0-.964,2.714q-.449,1.514-.83,3.05t-.673,2.949q-.292,1.413-.515,2.422l-1.5-.359q.314-1.547.561-3.14.224-1.368.4-3.006a29.233,29.233,0,0,0,.179-3.185q0-.987-.045-1.649a4.433,4.433,0,0,0-.179-1.065,1.111,1.111,0,0,0-.37-.572,1,1,0,0,0-.595-.168q-.561,0-1.143.807a9.9,9.9,0,0,0-1.166,2.557Z" transform="translate(-500.253 -285.907)"></path><path id="Path_476" data-name="Path 476" d="M518.618,299.931a3.171,3.171,0,0,1-2.5-1,4.478,4.478,0,0,1-.856-3.047,14.663,14.663,0,0,1,.117-1.795c.077-.621.165-1.24.261-1.839s.181-1.18.255-1.754a11.768,11.768,0,0,0,.108-1.5,4.294,4.294,0,0,0-.059-.7,1.817,1.817,0,0,0-.172-.54.743.743,0,0,0-.241-.282.712.712,0,0,0-.369-.08c-.071,0-.289,0-.616.341a5.7,5.7,0,0,0-.883,1.29,14.709,14.709,0,0,0-.838,1.967c-.263.752-.5,1.535-.7,2.326s-.391,1.6-.553,2.392-.287,1.5-.374,2.144a.638.638,0,0,1-.738.543l-1.592-.269a.638.638,0,0,1-.519-.756c.145-.713.268-1.367.366-1.942s.205-1.224.325-1.948.227-1.449.322-2.167.177-1.417.245-2.088c.064-.647.1-1.2.1-1.641a2.4,2.4,0,0,0-.27-1.222.519.519,0,0,0-.5-.293,1.073,1.073,0,0,0-.747.5,7.837,7.837,0,0,0-1.022,1.793,24.135,24.135,0,0,0-.938,2.643c-.294.992-.571,2.008-.823,3.023s-.476,2-.667,2.925-.367,1.753-.517,2.431a.638.638,0,0,1-.771.483l-1.5-.359a.638.638,0,0,1-.477-.748c.207-1.018.394-2.065.556-3.111.147-.9.282-1.9.4-2.978a28.746,28.746,0,0,0,.176-3.115c0-.641-.015-1.181-.043-1.605a3.856,3.856,0,0,0-.149-.907.528.528,0,0,0-.137-.256.42.42,0,0,0-.222-.048c-.113,0-.337.143-.626.543a9.381,9.381,0,0,0-1.078,2.385.639.639,0,0,1-.764.416l-.875-.224a.638.638,0,0,1-.446-.824,11.2,11.2,0,0,1,1.652-3.342,3.058,3.058,0,0,1,2.45-1.284,2.657,2.657,0,0,1,1.222.294,2.736,2.736,0,0,1,1.013.942,4.449,4.449,0,0,1,.557,1.281,8.3,8.3,0,0,1,1.207-1.755,3.674,3.674,0,0,1,2.708-1.3,3.125,3.125,0,0,1,1.14.223,2.652,2.652,0,0,1,1.094.833,4.377,4.377,0,0,1,.729,1.454q.057.183.1.381a5.894,5.894,0,0,1,.668-.639,3.739,3.739,0,0,1,2.411-.884,3.85,3.85,0,0,1,1.29.228,3,3,0,0,1,1.208.806,4.149,4.149,0,0,1,.815,1.39,5.917,5.917,0,0,1,.308,2.027c0,.23-.015.516-.047.875q-.045.511-.113,1.124t-.134,1.231q-.068.633-.136,1.187c-.044.363-.082.681-.112.956-.037.344-.041.467-.041.5a3.745,3.745,0,0,0,.242,1.635c.044.085.136.262.578.262a1.265,1.265,0,0,0,.8-.531,10.8,10.8,0,0,0,1.246-1.873c.436-.8.888-1.733,1.343-2.775s.928-2.145,1.41-3.29a.64.64,0,0,1,.747-.37l.874.224a.638.638,0,0,1,.43.865c-.428,1.02-.88,2.118-1.342,3.266a28.114,28.114,0,0,1-1.549,3.259,11.889,11.889,0,0,1-1.863,2.547A3.5,3.5,0,0,1,518.618,299.931Zm-1.539-12.357a3.318,3.318,0,0,1,.126.511,5.566,5.566,0,0,1,.076.912,13.116,13.116,0,0,1-.118,1.663c-.076.586-.164,1.189-.261,1.791-.094.584-.18,1.188-.254,1.793a13.362,13.362,0,0,0-.108,1.638,3.45,3.45,0,0,0,.536,2.2,1.81,1.81,0,0,0,1.3.562,1.677,1.677,0,0,1-1.025-.855,4.939,4.939,0,0,1-.386-2.222,6.165,6.165,0,0,1,.048-.641c.03-.279.069-.6.114-.974s.089-.753.134-1.168.09-.831.135-1.236.081-.764.11-1.1.042-.574.042-.763a4.659,4.659,0,0,0-.23-1.585A3.653,3.653,0,0,0,517.08,287.574Zm-14.248,10.837.274.065c.114-.53.24-1.126.375-1.78.195-.945.423-1.946.679-2.974s.538-2.069.838-3.078q.154-.521.318-1.01a.638.638,0,0,1-1.175-.345,8.185,8.185,0,0,0-.174-1.828,3.442,3.442,0,0,0-.438-1.1,2.124,2.124,0,0,0-.128-.173,2.17,2.17,0,0,1,.211.459,5.021,5.021,0,0,1,.211,1.224c.031.454.046,1.023.046,1.692a29.992,29.992,0,0,1-.183,3.254c-.121,1.1-.258,2.121-.408,3.039C503.145,296.707,503,297.567,502.832,298.411Zm6.9-1.432.3.051c.08-.494.177-1.022.292-1.578.166-.809.357-1.634.567-2.452s.459-1.643.734-2.429a15.949,15.949,0,0,1,.912-2.139q.132-.251.266-.475a5.983,5.983,0,0,0-.546.882.638.638,0,0,1-1.207-.277,8.833,8.833,0,0,0-.07-.993v.016c0,.484-.035,1.079-.1,1.768s-.153,1.4-.249,2.129-.208,1.474-.329,2.207-.228,1.378-.325,1.954C509.9,296.052,509.821,296.5,509.728,296.979Z" transform="translate(-498.219 -283.874)"></path></g><g id="Group_145" data-name="Group 145" transform="translate(133.703 12.628)"><path id="Path_477" data-name="Path 477" d="M606.149,280.924q-.247.651-.483,1.278t-.516,1.256a9.874,9.874,0,0,1-.661,1.233,10.6,10.6,0,0,1-.92,1.234l-.179-.18q.583-1.413,1.032-2.893t.9-3.32q-.112-.313-.2-.538c-.06-.149-.113-.287-.157-.415a3.108,3.108,0,0,1-.112-.4,2.323,2.323,0,0,1-.045-.482,3.561,3.561,0,0,1,.1-.8,3.671,3.671,0,0,1,.292-.819,2.6,2.6,0,0,1,.437-.64.72.72,0,0,1,.516-.258.808.808,0,0,1,.5.146,1.062,1.062,0,0,1,.3.37,1.744,1.744,0,0,1,.156.471,2.644,2.644,0,0,1,.045.471,4.425,4.425,0,0,1-.078.773q-.079.438-.18.852t-.179.729a2.277,2.277,0,0,0-.078.4,4.316,4.316,0,0,0,.616,1.233,15.662,15.662,0,0,0,1,1.279q.56.651,1.177,1.357a12.758,12.758,0,0,1,1.122,1.491,8.534,8.534,0,0,1,.83,1.671,6.05,6.05,0,0,1-.09,4.161,3.273,3.273,0,0,1-1.11,1.346,4.973,4.973,0,0,0,1.895-1.435,14.7,14.7,0,0,0,1.638-2.367q.75-1.334,1.391-2.792t1.132-2.715l.874.224q-.763,1.951-1.615,3.813a18.594,18.594,0,0,1-1.929,3.32,9.653,9.653,0,0,1-2.433,2.355,5.5,5.5,0,0,1-3.106.9,5.877,5.877,0,0,1-.953-.079,5.1,5.1,0,0,1-.942-.246,3.555,3.555,0,0,1-.864-.46,3.051,3.051,0,0,1-.695-.7l.74-.493a1.994,1.994,0,0,0,.628.583,2.073,2.073,0,0,0,1.121.269,2.385,2.385,0,0,0,1.178-.28,2.6,2.6,0,0,0,.852-.762,3.359,3.359,0,0,0,.516-1.133,5.537,5.537,0,0,0,.168-1.391,7.087,7.087,0,0,0-.437-2.624,9.956,9.956,0,0,0-1.032-1.963,18.786,18.786,0,0,0-1.211-1.581A6.141,6.141,0,0,1,606.149,280.924Z" transform="translate(-602.752 -274.544)"></path><path id="Path_478" data-name="Path 478" d="M606,291.842a6.54,6.54,0,0,1-1.057-.087,5.747,5.747,0,0,1-1.057-.277,4.21,4.21,0,0,1-1.019-.542,3.7,3.7,0,0,1-.839-.839.638.638,0,0,1,.164-.9l.74-.493a.638.638,0,0,1,.891.185,1.391,1.391,0,0,0,.432.389,1.475,1.475,0,0,0,.781.171,1.742,1.742,0,0,0,.867-.2,1.948,1.948,0,0,0,.645-.578,2.746,2.746,0,0,0,.416-.919,4.932,4.932,0,0,0,.148-1.231,6.5,6.5,0,0,0-.392-2.388,9.359,9.359,0,0,0-.965-1.838,18.179,18.179,0,0,0-1.169-1.527q-.178-.207-.336-.419l-.018.048c-.162.431-.34.866-.531,1.292A10.539,10.539,0,0,1,603,283a11.308,11.308,0,0,1-.976,1.309.637.637,0,0,1-.46.222.63.63,0,0,1-.476-.187l-.179-.18a.638.638,0,0,1-.138-.694c.379-.919.719-1.872,1.011-2.835.278-.918.561-1.959.842-3.1q-.07-.19-.129-.339c-.062-.155-.119-.3-.167-.439a3.819,3.819,0,0,1-.134-.483,2.93,2.93,0,0,1-.058-.614,4.212,4.212,0,0,1,.117-.94,4.33,4.33,0,0,1,.342-.96,3.263,3.263,0,0,1,.546-.795,1.339,1.339,0,0,1,.978-.455,1.43,1.43,0,0,1,.893.278,1.707,1.707,0,0,1,.485.589,2.407,2.407,0,0,1,.214.644,3.289,3.289,0,0,1,.055.585,5.09,5.09,0,0,1-.088.886c-.055.306-.118.606-.188.891s-.128.523-.18.733c-.022.088-.036.15-.045.193a3.878,3.878,0,0,0,.488.924,15.248,15.248,0,0,0,.958,1.227q.559.65,1.175,1.354a13.432,13.432,0,0,1,1.178,1.566,9.2,9.2,0,0,1,.892,1.8,6.068,6.068,0,0,1,.364,2.094,8.587,8.587,0,0,1-.042.872,15.2,15.2,0,0,0,.856-1.353c.487-.866.946-1.787,1.362-2.736.427-.974.8-1.88,1.123-2.691a.638.638,0,0,1,.752-.385l.874.224a.639.639,0,0,1,.436.85c-.511,1.307-1.059,2.6-1.629,3.846a19.319,19.319,0,0,1-2,3.433,10.335,10.335,0,0,1-2.594,2.508A6.159,6.159,0,0,1,606,291.842Zm.645-10.5q.081.114.161.23a10.629,10.629,0,0,1,1.1,2.089,7.753,7.753,0,0,1,.482,2.86,6.2,6.2,0,0,1-.189,1.551,4.011,4.011,0,0,1-.615,1.346,3.244,3.244,0,0,1-1.06.947,2.734,2.734,0,0,1-.471.206,5.158,5.158,0,0,0,1.61-.256.646.646,0,0,1-.072-.108.638.638,0,0,1,.206-.827,2.628,2.628,0,0,0,.892-1.091,5.422,5.422,0,0,0,.067-3.668,7.92,7.92,0,0,0-.768-1.545,12.168,12.168,0,0,0-1.066-1.417Zm-2.521-7.551s-.024.019-.064.061a1.993,1.993,0,0,0-.327.483,3.035,3.035,0,0,0-.24.677,2.941,2.941,0,0,0-.085.653,1.705,1.705,0,0,0,.031.349,2.561,2.561,0,0,0,.089.324c.043.122.092.251.149.391.062.158.132.344.21.561a.637.637,0,0,1,.019.366q-.092.375-.184.738a.638.638,0,0,1,.568-.112,4.426,4.426,0,0,1-.293-.73.635.635,0,0,1-.026-.181,2.346,2.346,0,0,1,.1-.558c.052-.209.112-.45.178-.725s.121-.535.172-.815a3.848,3.848,0,0,0,.068-.661,2.016,2.016,0,0,0-.035-.357,1.1,1.1,0,0,0-.1-.3.42.42,0,0,0-.122-.15A.365.365,0,0,0,604.124,273.786Z" transform="translate(-600.718 -272.51)"></path></g><g id="Group_146" data-name="Group 146" transform="translate(145.727 15.656)"><path id="Path_479" data-name="Path 479" d="M659.52,302.932a6.1,6.1,0,0,1-2.2-.4,5.1,5.1,0,0,1-1.851-1.222,5.935,5.935,0,0,1-1.267-2.053,8.1,8.1,0,0,1-.471-2.893,10.36,10.36,0,0,1,.583-3.6,8.944,8.944,0,0,1,1.492-2.669,6.471,6.471,0,0,1,2.03-1.66,4.814,4.814,0,0,1,2.2-.572,2.809,2.809,0,0,1,2.209.92,3.442,3.442,0,0,1,.819,2.377,5.361,5.361,0,0,1-.471,2.276,5.576,5.576,0,0,1-3.017,2.882,5.474,5.474,0,0,1-2.075.4,7.979,7.979,0,0,1-.976-.056q-.46-.055-.819-.123a8.743,8.743,0,0,0,.538,2.4,5.287,5.287,0,0,0,1.01,1.66,3.906,3.906,0,0,0,1.357.964,4,4,0,0,0,1.559.314,3.647,3.647,0,0,0,1.861-.494,6.5,6.5,0,0,0,1.57-1.289,10.707,10.707,0,0,0,1.312-1.828,22.163,22.163,0,0,0,1.065-2.1q.471-1.064.841-2.085t.662-1.806l.875.224q-.292.74-.684,1.795t-.908,2.21a21.434,21.434,0,0,1-1.211,2.309,11.5,11.5,0,0,1-1.57,2.064A7.512,7.512,0,0,1,662,302.36,5.329,5.329,0,0,1,659.52,302.932Zm.56-14.2a2.917,2.917,0,0,0-1.626.527,5.254,5.254,0,0,0-1.425,1.447,8.139,8.139,0,0,0-1.021,2.176,8.97,8.97,0,0,0-.392,2.691,4.013,4.013,0,0,0,.819.19,8.866,8.866,0,0,0,1.289.079,3.967,3.967,0,0,0,1.6-.348,4.827,4.827,0,0,0,2.467-2.434,4.395,4.395,0,0,0,.393-1.862,3.273,3.273,0,0,0-.135-.942,2.3,2.3,0,0,0-.4-.785,2.032,2.032,0,0,0-.662-.538A1.963,1.963,0,0,0,660.081,288.734Z" transform="translate(-653.095 -287.221)"></path><path id="Path_480" data-name="Path 480" d="M657.488,301.537a6.755,6.755,0,0,1-2.426-.446,5.752,5.752,0,0,1-2.08-1.373,6.6,6.6,0,0,1-1.406-2.27,8.766,8.766,0,0,1-.513-3.121,11.043,11.043,0,0,1,.622-3.821,9.62,9.62,0,0,1,1.6-2.857,7.135,7.135,0,0,1,2.229-1.819,5.468,5.468,0,0,1,2.488-.642,3.434,3.434,0,0,1,2.685,1.134,4.074,4.074,0,0,1,.98,2.8,6.021,6.021,0,0,1-.53,2.544,6.213,6.213,0,0,1-3.357,3.206,6.14,6.14,0,0,1-2.314.45,8.655,8.655,0,0,1-1.049-.061,7.127,7.127,0,0,0,.385,1.406,4.68,4.68,0,0,0,.884,1.462,3.291,3.291,0,0,0,1.136.81,3.378,3.378,0,0,0,1.313.265,3,3,0,0,0,1.542-.408,5.889,5.889,0,0,0,1.416-1.165,10.118,10.118,0,0,0,1.234-1.72,21.562,21.562,0,0,0,1.034-2.037c.307-.695.585-1.383.825-2.044q.372-1.025.664-1.811a.639.639,0,0,1,.757-.4l.875.225a.638.638,0,0,1,.435.852c-.193.49-.422,1.09-.68,1.783s-.574,1.463-.924,2.247a22.087,22.087,0,0,1-1.247,2.379,12.2,12.2,0,0,1-1.657,2.177,8.187,8.187,0,0,1-2.152,1.6A5.987,5.987,0,0,1,657.488,301.537Zm-2.766-13.566q-.235.231-.456.5a8.347,8.347,0,0,0-1.383,2.481,9.777,9.777,0,0,0-.544,3.379,7.5,7.5,0,0,0,.43,2.665,5.331,5.331,0,0,0,1.128,1.836,4.485,4.485,0,0,0,1.621,1.071,5.443,5.443,0,0,0,.92.262l-.105-.043A4.557,4.557,0,0,1,654.756,299a5.95,5.95,0,0,1-1.135-1.858,9.42,9.42,0,0,1-.581-2.575.709.709,0,0,0-.092-1.026,9.651,9.651,0,0,1,.421-2.882,8.821,8.821,0,0,1,1.1-2.345Q654.593,288.137,654.722,287.97Zm-.486,5.087c.076.015.163.03.261.044a8.284,8.284,0,0,0,1.2.072,3.353,3.353,0,0,0,1.348-.294,4.189,4.189,0,0,0,2.143-2.116,3.782,3.782,0,0,0,.335-1.595,2.656,2.656,0,0,0-.108-.759,1.656,1.656,0,0,0-.291-.57,1.386,1.386,0,0,0-.456-.369,1.325,1.325,0,0,0-.616-.131,2.274,2.274,0,0,0-1.274.421,4.646,4.646,0,0,0-1.25,1.275,7.548,7.548,0,0,0-.939,2.006A8.172,8.172,0,0,0,654.235,293.057Z" transform="translate(-651.063 -285.188)"></path></g><g id="Group_147" data-name="Group 147" transform="translate(158.779)"><path id="Path_481" data-name="Path 481" d="M716.727,225.09a15.088,15.088,0,0,1-.325,3.005,30.627,30.627,0,0,1-.852,3.23q-.528,1.638-1.211,3.3t-1.38,3.186q-.7,1.526-1.368,2.893t-1.189,2.445a33.052,33.052,0,0,0,.314,3.32,16.312,16.312,0,0,0,.561,2.524,4.777,4.777,0,0,0,.807,1.6,1.383,1.383,0,0,0,1.077.561,1.957,1.957,0,0,0,1.334-.628,8.135,8.135,0,0,0,1.335-1.772,24.924,24.924,0,0,0,1.368-2.759q.7-1.615,1.413-3.611l.875.224q-.538,1.548-1.211,3.263a23.193,23.193,0,0,1-1.5,3.151,10.778,10.778,0,0,1-1.805,2.378,2.984,2.984,0,0,1-2.1.942,2.693,2.693,0,0,1-1.884-.7,5.283,5.283,0,0,1-1.256-1.828,11.894,11.894,0,0,1-.763-2.579q-.269-1.448-.4-2.949t-.157-2.927q-.023-1.425-.023-2.523,0-2.04.169-4.06a37.453,37.453,0,0,1,.515-3.858,30.443,30.443,0,0,1,.841-3.421,13.7,13.7,0,0,1,1.155-2.736,6.4,6.4,0,0,1,1.457-1.806,2.692,2.692,0,0,1,1.738-.65,2.641,2.641,0,0,1,1.144.224,2.052,2.052,0,0,1,.763.605,2.518,2.518,0,0,1,.426.886A4.12,4.12,0,0,1,716.727,225.09Zm-6.46,12.92v1.67q0,.819.045,1.581.561-1.122,1.189-2.455t1.244-2.759q.617-1.424,1.178-2.882t.987-2.86q.426-1.4.684-2.669a11.636,11.636,0,0,0,.258-2.3,4.96,4.96,0,0,0-.056-.718,2.68,2.68,0,0,0-.2-.706,1.414,1.414,0,0,0-.415-.538,1.085,1.085,0,0,0-.7-.213,2.1,2.1,0,0,0-1.626,1.111,10.6,10.6,0,0,0-1.346,3.084,30.478,30.478,0,0,0-.909,4.7A48.768,48.768,0,0,0,710.267,238.01Z" transform="translate(-707.745 -221.671)"></path><path id="Path_482" data-name="Path 482" d="M710.836,250.946a3.321,3.321,0,0,1-2.314-.862,5.935,5.935,0,0,1-1.411-2.045,12.589,12.589,0,0,1-.8-2.717c-.183-.983-.321-2-.412-3.009s-.144-2.012-.159-2.974-.023-1.811-.023-2.533c0-1.374.057-2.759.171-4.113a38.24,38.24,0,0,1,.524-3.923,31.178,31.178,0,0,1,.859-3.492,14.368,14.368,0,0,1,1.211-2.863,7.054,7.054,0,0,1,1.607-1.982,3.325,3.325,0,0,1,2.142-.795,3.281,3.281,0,0,1,1.419.287,2.692,2.692,0,0,1,.995.794,3.159,3.159,0,0,1,.536,1.109,4.778,4.778,0,0,1,.156,1.23,15.777,15.777,0,0,1-.338,3.133,31.315,31.315,0,0,1-.87,3.3c-.356,1.1-.769,2.228-1.229,3.345s-.926,2.191-1.389,3.207-.925,1.993-1.377,2.91q-.625,1.273-1.116,2.293c.06,1.135.16,2.176.3,3.095a15.743,15.743,0,0,0,.537,2.423,4.19,4.19,0,0,0,.689,1.388.742.742,0,0,0,.589.333,1.367,1.367,0,0,0,.9-.453,7.548,7.548,0,0,0,1.224-1.633,24.4,24.4,0,0,0,1.332-2.688c.456-1.059.927-2.262,1.4-3.575a.638.638,0,0,1,.759-.4l.875.224a.638.638,0,0,1,.444.828c-.362,1.041-.773,2.146-1.22,3.287a23.918,23.918,0,0,1-1.544,3.238,11.456,11.456,0,0,1-1.914,2.517A3.613,3.613,0,0,1,710.836,250.946Zm-.98-28.341q-.138.21-.272.443a13.139,13.139,0,0,0-1.1,2.609,29.968,29.968,0,0,0-.823,3.349,37,37,0,0,0-.507,3.792c-.111,1.32-.167,2.668-.167,4.007,0,.716.008,1.562.023,2.513.015.93.067,1.9.155,2.88s.22,1.946.4,2.89a11.326,11.326,0,0,0,.72,2.441,4.682,4.682,0,0,0,1.1,1.612,1.98,1.98,0,0,0,1.125.509,2.185,2.185,0,0,1-.945-.682,5.338,5.338,0,0,1-.926-1.818,17.011,17.011,0,0,1-.584-2.624,33.871,33.871,0,0,1-.32-3.384.636.636,0,0,1,.062-.307q.22-.459.468-.97a.651.651,0,0,1-.111-.013.638.638,0,0,1-.509-.588c-.03-.518-.046-1.062-.046-1.619v-1.67a49.708,49.708,0,0,1,.341-6.034,31.26,31.26,0,0,1,.929-4.8A13.312,13.312,0,0,1,709.856,222.605Zm2.595-.84c-.43,0-.836.455-1.1.837a10.035,10.035,0,0,0-1.257,2.9,29.989,29.989,0,0,0-.888,4.6,48.381,48.381,0,0,0-.332,5.878v.563l.019-.039c.411-.873.827-1.8,1.236-2.741s.8-1.9,1.168-2.858.694-1.9.972-2.817.5-1.786.67-2.611a11.069,11.069,0,0,0,.245-2.172,4.327,4.327,0,0,0-.05-.625,2.054,2.054,0,0,0-.152-.538.781.781,0,0,0-.229-.3A.483.483,0,0,0,712.451,221.765Z" transform="translate(-705.712 -219.637)"></path></g><g id="Group_148" data-name="Group 148" transform="translate(167.909 12.628)"><path id="Path_483" data-name="Path 483" d="M749.369,280.924q-.247.651-.482,1.278t-.516,1.256a9.894,9.894,0,0,1-.662,1.233,10.534,10.534,0,0,1-.92,1.234l-.179-.18q.583-1.413,1.032-2.893t.9-3.32q-.112-.313-.2-.538t-.157-.415a3.051,3.051,0,0,1-.112-.4,2.355,2.355,0,0,1-.045-.482,3.6,3.6,0,0,1,.1-.8,3.667,3.667,0,0,1,.292-.819,2.591,2.591,0,0,1,.437-.64.718.718,0,0,1,.516-.258.806.806,0,0,1,.5.146,1.05,1.05,0,0,1,.3.37,1.757,1.757,0,0,1,.157.471,2.634,2.634,0,0,1,.045.471,4.486,4.486,0,0,1-.078.773q-.079.438-.179.852t-.179.729a2.233,2.233,0,0,0-.079.4,4.323,4.323,0,0,0,.617,1.233,15.7,15.7,0,0,0,1,1.279q.561.651,1.177,1.357a12.675,12.675,0,0,1,1.122,1.491,8.531,8.531,0,0,1,.83,1.671,6.052,6.052,0,0,1-.09,4.161,3.273,3.273,0,0,1-1.111,1.346,4.973,4.973,0,0,0,1.9-1.435,14.653,14.653,0,0,0,1.638-2.367q.751-1.334,1.391-2.792t1.132-2.715l.875.224q-.763,1.951-1.615,3.813a18.6,18.6,0,0,1-1.929,3.32,9.652,9.652,0,0,1-2.434,2.355,5.5,5.5,0,0,1-3.106.9,5.865,5.865,0,0,1-.953-.079,5.086,5.086,0,0,1-.942-.246,3.55,3.55,0,0,1-.864-.46,3.053,3.053,0,0,1-.7-.7l.74-.493a2,2,0,0,0,.628.583,2.074,2.074,0,0,0,1.122.269,2.386,2.386,0,0,0,1.178-.28,2.607,2.607,0,0,0,.853-.762,3.361,3.361,0,0,0,.515-1.133A5.518,5.518,0,0,0,753,288.55a7.073,7.073,0,0,0-.438-2.624,9.9,9.9,0,0,0-1.032-1.963,18.723,18.723,0,0,0-1.211-1.581A6.162,6.162,0,0,1,749.369,280.924Z" transform="translate(-745.972 -274.544)"></path><path id="Path_484" data-name="Path 484" d="M749.22,291.842a6.526,6.526,0,0,1-1.056-.087,5.746,5.746,0,0,1-1.058-.277,4.21,4.21,0,0,1-1.018-.542,3.7,3.7,0,0,1-.839-.839.638.638,0,0,1,.163-.9l.74-.493a.638.638,0,0,1,.891.185,1.39,1.39,0,0,0,.432.389,1.475,1.475,0,0,0,.781.171,1.747,1.747,0,0,0,.868-.2,1.959,1.959,0,0,0,.645-.578,2.741,2.741,0,0,0,.414-.918,4.913,4.913,0,0,0,.149-1.232,6.483,6.483,0,0,0-.392-2.388,9.293,9.293,0,0,0-.965-1.838,18.166,18.166,0,0,0-1.169-1.527q-.178-.207-.336-.419l-.018.048c-.156.418-.335.852-.53,1.291a10.592,10.592,0,0,1-.705,1.314,11.174,11.174,0,0,1-.975,1.309.637.637,0,0,1-.46.222.622.622,0,0,1-.476-.187l-.179-.18a.637.637,0,0,1-.138-.694c.378-.917.718-1.871,1.011-2.835.278-.919.562-1.96.842-3.1-.046-.126-.089-.239-.129-.338-.063-.157-.119-.3-.167-.44a3.747,3.747,0,0,1-.134-.483,2.979,2.979,0,0,1-.059-.614,4.242,4.242,0,0,1,.117-.938,4.338,4.338,0,0,1,.344-.963,3.243,3.243,0,0,1,.545-.793,1.34,1.34,0,0,1,.978-.455,1.429,1.429,0,0,1,.893.278,1.7,1.7,0,0,1,.486.591,2.422,2.422,0,0,1,.214.643,3.306,3.306,0,0,1,.055.585,5.114,5.114,0,0,1-.088.885c-.056.307-.119.606-.188.891s-.128.523-.18.732c-.022.089-.037.151-.046.195a3.866,3.866,0,0,0,.488.924,15.174,15.174,0,0,0,.958,1.227q.559.649,1.175,1.354a13.384,13.384,0,0,1,1.177,1.566,9.205,9.205,0,0,1,.892,1.8,6.076,6.076,0,0,1,.364,2.094,8.675,8.675,0,0,1-.042.872,15.246,15.246,0,0,0,.856-1.353c.486-.864.945-1.784,1.363-2.736.427-.974.8-1.88,1.123-2.691a.637.637,0,0,1,.752-.385l.875.224a.638.638,0,0,1,.436.85c-.511,1.307-1.059,2.6-1.629,3.846a19.348,19.348,0,0,1-2,3.433,10.331,10.331,0,0,1-2.6,2.508A6.156,6.156,0,0,1,749.22,291.842Zm.643-10.507c.055.076.108.154.162.232a10.58,10.58,0,0,1,1.1,2.089,7.734,7.734,0,0,1,.483,2.86,6.186,6.186,0,0,1-.189,1.551,4,4,0,0,1-.614,1.344,3.258,3.258,0,0,1-1.061.948,2.717,2.717,0,0,1-.472.206,5.159,5.159,0,0,0,1.61-.256.639.639,0,0,1,.134-.935,2.629,2.629,0,0,0,.892-1.091,5.426,5.426,0,0,0,.067-3.668,7.925,7.925,0,0,0-.768-1.545,12.061,12.061,0,0,0-1.066-1.417Zm-2.519-7.549s-.023.019-.064.061a1.977,1.977,0,0,0-.326.482,3.029,3.029,0,0,0-.242.68,2.969,2.969,0,0,0-.084.651,1.722,1.722,0,0,0,.031.351,2.483,2.483,0,0,0,.089.321c.043.123.092.252.148.392q.094.236.21.561a.639.639,0,0,1,.019.366q-.092.375-.184.738a.638.638,0,0,1,.568-.112,4.427,4.427,0,0,1-.293-.73.648.648,0,0,1-.026-.181,2.312,2.312,0,0,1,.1-.56c.051-.206.111-.448.178-.724.063-.259.121-.534.172-.815a3.872,3.872,0,0,0,.068-.66,2,2,0,0,0-.035-.357,1.1,1.1,0,0,0-.1-.3.407.407,0,0,0-.121-.148A.318.318,0,0,0,747.344,273.786Z" transform="translate(-743.939 -272.51)"></path></g><g id="Group_149" data-name="Group 149" transform="translate(9.695 17.31)"><path id="Path_485" data-name="Path 485" d="M81.493,292.332a1.21,1.21,0,0,1,.564,1.085s.617-.33.436-.883-.691-.478-1-.244" transform="translate(-81.493 -292.114)"></path></g><g id="Group_150" data-name="Group 150" transform="translate(9.695 14.552)"><path id="Path_486" data-name="Path 486" d="M81.493,281.351s.713.309.787-.786c0,0,.457,1.159,0,1.212A.97.97,0,0,1,81.493,281.351Z" transform="translate(-81.493 -280.565)"></path></g><g id="Group_151" data-name="Group 151" transform="translate(10.025 24.428)"><path id="Path_487" data-name="Path 487" d="M83.214,321.918a2.7,2.7,0,0,1-.34,1.68,1.082,1.082,0,0,0,.818-.244C84.065,323.035,83.331,321.982,83.214,321.918Z" transform="translate(-82.874 -321.918)"></path></g><g id="Group_152" data-name="Group 152" transform="translate(12.713 23.707)"><path id="Path_488" data-name="Path 488" d="M95.322,318.919a4.466,4.466,0,0,0-.51,2.232s-.923-.9-.623-1.45S95.311,318.813,95.322,318.919Z" transform="translate(-94.128 -318.9)"></path></g><g id="Group_153" data-name="Group 153" transform="translate(10.418 27.713)"><path id="Path_489" data-name="Path 489" d="M84.521,336.895s.669-.744,1.074,0c0,0,.128-1.24-.372-1.223S84.51,336.671,84.521,336.895Z" transform="translate(-84.52 -335.671)"></path></g><g id="Group_154" data-name="Group 154" transform="translate(12.563 18.613)"><path id="Path_490" data-name="Path 490" d="M94.142,297.57s0,1.521.574.213c0,0,.128,2.042-.734,1.882S93.568,298.155,94.142,297.57Z" transform="translate(-93.501 -297.57)"></path></g><g id="Group_155" data-name="Group 155" transform="translate(18.656 26.904)"><path id="Path_491" data-name="Path 491" d="M119.067,333.169s.319-.52.511,0c0,0,.191-.638-.106-.851S118.886,332.926,119.067,333.169Z" transform="translate(-119.011 -332.284)"></path></g><g id="Group_156" data-name="Group 156" transform="translate(21.843 25.574)"><path id="Path_492" data-name="Path 492" d="M132.736,327.4s-.138-.5.51-.479c0,0-.627-.35-.829-.138S132.587,327.271,132.736,327.4Z" transform="translate(-132.358 -326.714)"></path></g><g id="Group_157" data-name="Group 157" transform="translate(21.573 22.983)"><path id="Path_493" data-name="Path 493" d="M131.609,315.869s-.059.554.4.606a.709.709,0,0,1-.651.117C131.024,316.454,131.418,315.922,131.609,315.869Z" transform="translate(-131.227 -315.869)"></path></g><g id="Group_158" data-name="Group 158" transform="translate(31.532 26.908)"><path id="Path_494" data-name="Path 494" d="M173.015,333.2s.383-.659.617,0c0,0,0-.872-.319-.893S172.8,332.9,173.015,333.2Z" transform="translate(-172.925 -332.303)"></path></g><g id="Group_159" data-name="Group 159" transform="translate(41.073 28.395)"><path id="Path_495" data-name="Path 495" d="M212.916,339.144s.342-.495.646,0a.36.36,0,0,0-.144-.559C213.014,338.393,212.767,338.729,212.916,339.144Z" transform="translate(-212.872 -338.529)"></path></g><g id="Group_160" data-name="Group 160" transform="translate(50.823 20.415)"><path id="Path_496" data-name="Path 496" d="M253.858,305.906s.255-.627.734-.542c0,0-.553-.558-.776-.008S253.731,305.757,253.858,305.906Z" transform="translate(-253.698 -305.113)"></path></g><g id="Group_161" data-name="Group 161" transform="translate(52.547 20.424)"><path id="Path_497" data-name="Path 497" d="M260.916,305.416s.5-.1.213.648c0,0,.553-.5.553-.755S261.033,305.129,260.916,305.416Z" transform="translate(-260.916 -305.154)"></path></g><g id="Group_162" data-name="Group 162" transform="translate(49.102 18.757)"><path id="Path_498" data-name="Path 498" d="M246.492,298.184a1.311,1.311,0,0,1,.021.951c-.17.617.768.152.8-.213S246.716,298.1,246.492,298.184Z" transform="translate(-246.492 -298.174)"></path></g><g id="Group_163" data-name="Group 163" transform="translate(51.407 18.071)"><path id="Path_499" data-name="Path 499" d="M256.663,295.3s-.181.437.383.489c0,0-.659.254-.851.117S256.344,295.437,256.663,295.3Z" transform="translate(-256.14 -295.299)"></path></g><g id="Group_164" data-name="Group 164" transform="translate(83.177 17.334)"><path id="Path_500" data-name="Path 500" d="M389.162,292.51s.415.224.4,1c0,0,.646-.351.351-.925S389.593,292.19,389.162,292.51Z" transform="translate(-389.162 -292.214)"></path></g><g id="Group_165" data-name="Group 165" transform="translate(85.88 18.73)"><path id="Path_501" data-name="Path 501" d="M401.158,298.06s-.016,1.356.495.112c0,0-.144,1.914-.829,1.818S400.6,298.634,401.158,298.06Z" transform="translate(-400.48 -298.06)"></path></g><g id="Group_166" data-name="Group 166" transform="translate(82.794 14.503)"><path id="Path_502" data-name="Path 502" d="M387.559,281.161s.941.3,1.021-.8c0,0,.649,1.436.189,1.436S387.671,281.623,387.559,281.161Z" transform="translate(-387.559 -280.363)"></path></g><g id="Group_167" data-name="Group 167" transform="translate(83.152 24.568)"><path id="Path_503" data-name="Path 503" d="M389.609,322.5a2.8,2.8,0,0,1-.462,1.691c-.543.75,1.579-.287,1.595-.686S389.609,322.5,389.609,322.5Z" transform="translate(-389.058 -322.502)"></path></g><g id="Group_168" data-name="Group 168" transform="translate(85.747 22.948)"><path id="Path_504" data-name="Path 504" d="M400.879,318.617a3.451,3.451,0,0,1,.511-2.01c.622-1.005-1.133-1.308-1.4-.1A1.8,1.8,0,0,0,400.879,318.617Z" transform="translate(-399.924 -315.721)"></path></g><g id="Group_169" data-name="Group 169" transform="translate(83.878 27.829)"><path id="Path_505" data-name="Path 505" d="M392.1,337.092s.494-.637.845,0,.5-.311.31-.759S392.067,336.358,392.1,337.092Z" transform="translate(-392.098 -336.159)"></path></g><g id="Group_170" data-name="Group 170" transform="translate(91.712 26.53)"><path id="Path_506" data-name="Path 506" d="M425.072,332.2s.446-.813.773-.048c0,0,.455-.957,0-1.356s-1.236.8-.837,1.4" transform="translate(-424.898 -330.717)"></path></g><g id="Group_171" data-name="Group 171" transform="translate(101.275 28.071)"><path id="Path_507" data-name="Path 507" d="M464.977,338.293s.51-.622.909,0,.223-.937-.271-1.1S464.833,337.831,464.977,338.293Z" transform="translate(-464.94 -337.172)"></path></g><g id="Group_172" data-name="Group 172" transform="translate(115.637 17.741)"><path id="Path_508" data-name="Path 508" d="M525.358,293.92s.239.654.638,0c0,0,.128,1.116-.463,1.116S524.959,294.351,525.358,293.92Z" transform="translate(-525.072 -293.92)"></path></g><g id="Group_173" data-name="Group 173" transform="translate(122.557 17.375)"><path id="Path_509" data-name="Path 509" d="M554.32,292.385s.319.878,1.069.16c0,0-.223,1.356-.893,1.323S554.033,292.672,554.32,292.385Z" transform="translate(-554.049 -292.385)"></path></g><g id="Group_174" data-name="Group 174" transform="translate(136.524 19.703)"><path id="Path_510" data-name="Path 510" d="M612.883,303.778s.319-.973,1.069,0c0,0-.159-1.643-.909-1.643S612.469,303.22,612.883,303.778Z" transform="translate(-612.526 -302.135)"></path></g><g id="Group_175" data-name="Group 175" transform="translate(137.654 15.99)"><path id="Path_511" data-name="Path 511" d="M618.112,288.659a2.637,2.637,0,0,1,0-1.659c.287-.989-.784.029-.846.725S617.554,288.659,618.112,288.659Z" transform="translate(-617.259 -286.589)"></path></g><g id="Group_176" data-name="Group 176" transform="translate(135.333 16.879)"><path id="Path_512" data-name="Path 512" d="M607.543,290.374a2.555,2.555,0,0,1,.08,1.435c-.192.765.712-.387.7-.8S607.894,290.135,607.543,290.374Z" transform="translate(-607.543 -290.309)"></path></g><g id="Group_177" data-name="Group 177" transform="translate(142.815 26.498)"><path id="Path_513" data-name="Path 513" d="M639.331,330.584s-.048.813.494,0c0,0-.095,1.06-.638,1.021S638.868,330.855,639.331,330.584Z" transform="translate(-638.87 -330.584)"></path></g><g id="Group_178" data-name="Group 178" transform="translate(145.52 26.752)"><path id="Path_514" data-name="Path 514" d="M650.2,332.669s.415-.734.67,0,.431-.861,0-1S650.153,332.318,650.2,332.669Z" transform="translate(-650.195 -331.647)"></path></g><g id="Group_179" data-name="Group 179" transform="translate(148.473 25.131)"><path id="Path_515" data-name="Path 515" d="M663.294,326.117s-.176-.67.75-.622-.845-1.18-1.34-.335S663.1,325.878,663.294,326.117Z" transform="translate(-662.557 -324.863)"></path></g><g id="Group_180" data-name="Group 180" transform="translate(148.501 22.392)"><path id="Path_516" data-name="Path 516" d="M663.593,314.612s-.558-.016-.431-.941-.7.733-.431,1.021S663.7,314.931,663.593,314.612Z" transform="translate(-662.677 -313.394)"></path></g><g id="Group_181" data-name="Group 181" transform="translate(159.072 25.946)"><path id="Path_517" data-name="Path 517" d="M706.947,329.286s.367-.781.574,0,.112-.7,0-.957S706.852,328.712,706.947,329.286Z" transform="translate(-706.936 -328.272)"></path></g><g id="Group_182" data-name="Group 182" transform="translate(161.681 15.673)"><path id="Path_518" data-name="Path 518" d="M718.1,285.512s.016.989.463,0,0,1.276-.351,1.34S717.687,285.926,718.1,285.512Z" transform="translate(-717.861 -285.262)"></path></g><g id="Group_183" data-name="Group 183" transform="translate(171.03 19.593)"><path id="Path_519" data-name="Path 519" d="M757.132,303.2s.263-.765.821-.032.3-1.146-.331-1.45S756.877,302.678,757.132,303.2Z" transform="translate(-757.005 -301.675)"></path></g><g id="Group_184" data-name="Group 184" transform="translate(171.658 15.988)"><path id="Path_520" data-name="Path 520" d="M760.648,288.525a2.361,2.361,0,0,1,0-1.579c.271-1.069-1.025.495-1.015,1S760.2,288.891,760.648,288.525Z" transform="translate(-759.633 -286.58)"></path></g><g id="Group_185" data-name="Group 185" transform="translate(169.615 16.951)"><path id="Path_521" data-name="Path 521" d="M751.106,290.811a1.934,1.934,0,0,1,0,1.212c-.207.733.841-.744.737-1.015S751.362,290.381,751.106,290.811Z" transform="translate(-751.079 -290.611)"></path></g><g id="Group_186" data-name="Group 186" transform="translate(177.165 26.338)"><path id="Path_522" data-name="Path 522" d="M783,330.042s.064.718.526,0-.463,1.835-.718,1.611S782.762,330.25,783,330.042Z" transform="translate(-782.693 -329.915)"></path></g></g></svg> 